<svg xmlns="http://www.w3.org/2000/svg" width="500" height="57" viewBox="0 0 500 57">
  <g fill="none" fill-rule="evenodd">
    <path fill="#ED66AF" d="M11.006764,42.2223983 L11.006764,40.679995 L0,40.679995 L0,42.2223983 L4.64609492,42.2223983 L4.64609492,56.8621581 L6.35831061,56.8621581 L6.35831061,42.2223983 L11.006764,42.2223983 Z M25.291737,40.679995 L23.4403743,40.679995 L19.6975557,48.4324133 L15.9075687,40.679995 L14.0585644,40.679995 L18.8414479,50.1815794 L18.8414479,56.8621581 L20.5536636,56.8621581 L20.5536636,50.1815794 L25.291737,40.679995 Z M40.4328179,56.8621581 L36.6239635,49.5208889 C38.6993764,49.0883506 40.1167891,47.5435707 40.1167891,45.1788692 C40.1167891,42.3816294 38.156939,40.679995 35.3598483,40.679995 L29.2020037,40.679995 L29.2020037,56.8621581 L30.911861,56.8621581 L30.911861,49.6777435 L34.7726008,49.6777435 L38.4281577,56.8621581 L40.4328179,56.8621581 Z M38.4045735,45.2026351 C38.4045735,47.1799533 37.0744224,48.1591061 35.2018339,48.1591061 L30.911861,48.1591061 L30.911861,42.2223983 L35.2018339,42.2223983 C37.0744224,42.2223983 38.4045735,43.2229403 38.4045735,45.2026351 Z M55.6375763,48.7698883 C55.6375763,45.3381004 55.6375763,43.7457889 54.1281851,42.2223983 C53.0456685,41.1339226 51.623539,40.5421531 50.0198108,40.5421531 C48.418441,40.5421531 46.9963114,41.1339226 45.9137949,42.2223983 C44.4044036,43.7457889 44.4044036,45.3381004 44.4044036,48.7698883 C44.4044036,52.2040527 44.4044036,53.7963642 45.9137949,55.3197548 C46.9963114,56.4082305 48.418441,57 50.0198108,57 C51.623539,57 53.0456685,56.4082305 54.1281851,55.3197548 C55.6375763,53.7963642 55.6375763,52.2040527 55.6375763,48.7698883 Z M53.9253606,48.7698883 C53.9253606,52.1588976 53.8121563,53.2497498 52.7956756,54.295447 C52.0975821,55.0250584 51.0811015,55.4552201 50.0198108,55.4552201 C48.9608785,55.4552201 47.9443978,55.0250584 47.2439459,54.295447 C46.2298237,53.2497498 46.1166193,52.1588976 46.1166193,48.7698883 C46.1166193,45.3832555 46.2298237,44.2924033 47.2439459,43.2467061 C47.9443978,42.5170947 48.9608785,42.0845564 50.0198108,42.0845564 C51.0811015,42.0845564 52.0975821,42.5170947 52.7956756,43.2467061 C53.8121563,44.2924033 53.9253606,45.3832555 53.9253606,48.7698883 Z M70.4390442,56.8621581 L70.4390442,55.3197548 L62.2270124,55.3197548 L62.2270124,40.679995 L60.5147968,40.679995 L60.5147968,56.8621581 L70.4390442,56.8621581 Z M84.5754365,56.8621581 L84.5754365,55.3197548 L76.3185948,55.3197548 L76.3185948,49.4733572 L83.3561314,49.4733572 L83.3561314,47.930954 L76.3185948,47.930954 L76.3185948,42.2223983 L84.5754365,42.2223983 L84.5754365,40.679995 L74.6063791,40.679995 L74.6063791,56.8621581 L84.5754365,56.8621581 Z M101.2094,56.8621581 L95.3227739,40.679995 L93.8770601,40.679995 L87.96685,56.8621581 L89.7946285,56.8621581 L91.0799694,53.2022181 L98.0962803,53.2022181 L99.3816213,56.8621581 L101.2094,56.8621581 Z M97.6010113,51.70497 L91.5988227,51.70497 L94.622322,43.1563959 L97.6010113,51.70497 Z M117.041499,56.8621581 L117.041499,40.679995 L115.329283,40.679995 L115.329283,53.6157438 L106.798864,40.679995 L105.176269,40.679995 L105.176269,56.8621581 L106.888484,56.8621581 L106.888484,43.8836308 L115.418903,56.8621581 L117.041499,56.8621581 Z M143.323774,56.8621581 L137.481958,40.679995 L134.434874,40.679995 L128.593059,56.8621581 L132.7203,56.8621581 L133.510372,54.4523015 L138.45127,54.4523015 L139.196532,56.8621581 L143.323774,56.8621581 Z M137.413564,51.1369663 L134.616473,51.1369663 L136.059828,46.8163359 L137.413564,51.1369663 Z M158.554475,56.8621581 L155.082875,50.1126584 C156.344632,49.4757338 157.698367,48.0901851 157.698367,45.8847148 C157.698367,43.2229403 155.780968,40.679995 152.21739,40.679995 L145.856721,40.679995 L145.856721,56.8621581 L149.802364,56.8621581 L149.802364,50.8375167 L151.134874,50.8375167 L153.979133,56.8621581 L158.554475,56.8621581 Z M153.752724,45.8847148 C153.752724,46.7260257 153.120666,47.5221815 152.03815,47.5221815 L149.802364,47.5221815 L149.802364,44.2448716 L152.03815,44.2448716 C153.120666,44.2448716 153.752724,45.0410274 153.752724,45.8847148 Z M172.16258,44.2234823 L172.16258,40.679995 L160.320934,40.679995 L160.320934,44.2234823 L164.268936,44.2234823 L164.268936,56.8621581 L168.214579,56.8621581 L168.214579,44.2234823 L172.16258,44.2234823 Z M175.035141,56.8621581 L178.980784,56.8621581 L178.980784,40.6776184 L175.035141,40.6776184 L175.035141,56.8621581 Z M193.834137,51.9093562 C193.834137,50.4073549 193.496882,49.2024266 192.640774,48.3611157 C191.963907,47.679036 190.9262,47.2251084 189.482845,47.0207221 L187.541862,46.7474149 C186.978199,46.678494 186.638586,46.4741077 186.435761,46.2697215 C186.188127,46.0201801 186.119732,45.7231071 186.119732,45.5187208 C186.119732,44.8152518 186.683396,44.0190961 188.060715,44.0190961 C188.761167,44.0190961 190.093677,43.9501751 191.107799,44.9721064 L193.586502,42.4743162 C192.211541,41.0887675 190.475741,40.5421531 188.17392,40.5421531 C184.518363,40.5421531 182.30852,42.7000917 182.30852,45.6565627 C182.30852,47.0421114 182.669358,48.1353402 183.41462,48.9077302 C184.136298,49.6587308 185.216456,50.1364243 186.638586,50.3408105 L188.579569,50.6141177 C189.10078,50.6806621 189.438035,50.8398933 189.640859,51.0442795 C189.867268,51.2961975 189.956888,51.6146598 189.956888,51.9996664 C189.956888,52.9336641 189.211626,53.4565127 187.655066,53.4565127 C186.367367,53.4565127 184.902786,53.1594396 184.067904,52.3181288 L181.542032,54.8634506 C183.166986,56.5460724 185.171646,57 187.631482,57 C191.01582,57 193.834137,55.2056788 193.834137,51.9093562 Z M208.090809,44.2234823 L208.090809,40.679995 L196.249163,40.679995 L196.249163,44.2234823 L200.197164,44.2234823 L200.197164,56.8621581 L204.142807,56.8621581 L204.142807,44.2234823 L208.090809,44.2234823 Z M222.062111,51.9093562 C222.062111,50.4073549 221.724857,49.2024266 220.866391,48.3611157 C220.191881,47.679036 219.154175,47.2251084 217.71082,47.0207221 L215.769837,46.7474149 C215.203815,46.678494 214.86656,46.4741077 214.663736,46.2697215 C214.413743,46.0201801 214.345349,45.7231071 214.345349,45.5187208 C214.345349,44.8152518 214.91137,44.0190961 216.28869,44.0190961 C216.989142,44.0190961 218.319293,43.9501751 219.333415,44.9721064 L221.814477,42.4743162 C220.439516,41.0887675 218.703716,40.5421531 216.401894,40.5421531 C212.746337,40.5421531 210.536494,42.7000917 210.536494,45.6565627 C210.536494,47.0421114 210.897333,48.1353402 211.640237,48.9077302 C212.361914,49.6587308 213.444431,50.1364243 214.86656,50.3408105 L216.807543,50.6141177 C217.326396,50.6806621 217.666009,50.8398933 217.868834,51.0442795 C218.095243,51.2961975 218.184863,51.6146598 218.184863,51.9996664 C218.184863,52.9336641 217.439601,53.4565127 215.880683,53.4565127 C214.595342,53.4565127 213.128402,53.1594396 212.295878,52.3181288 L209.770007,54.8634506 C211.392602,56.5460724 213.399621,57 215.859457,57 C219.243795,57 222.062111,55.2056788 222.062111,51.9093562 Z M228.491175,44.0214726 L228.491175,40.679995 L224.795525,40.679995 L224.795525,46.7046364 L228.491175,44.0214726 Z M250.422158,56.8621581 L244.577984,40.679995 L241.533258,40.679995 L235.689084,56.8621581 L239.818684,56.8621581 L240.608756,54.4523015 L245.549654,54.4523015 L246.292558,56.8621581 L250.422158,56.8621581 Z M244.509589,51.1369663 L241.712499,51.1369663 L243.158213,46.8163359 L244.509589,51.1369663 Z M264.188278,51.9093562 C264.188278,50.4073549 263.851023,49.2024266 262.994915,48.3611157 C262.318048,47.679036 261.280341,47.2251084 259.836986,47.0207221 L257.896003,46.7474149 C257.329981,46.678494 256.992727,46.4741077 256.789902,46.2697215 C256.539909,46.0201801 256.473873,45.7231071 256.473873,45.5187208 C256.473873,44.8152518 257.037537,44.0190961 258.414856,44.0190961 C259.115308,44.0190961 260.445459,43.9501751 261.46194,44.9721064 L263.940643,42.4743162 C262.565682,41.0887675 260.829882,40.5421531 258.528061,40.5421531 C254.872504,40.5421531 252.66266,42.7000917 252.66266,45.6565627 C252.66266,47.0421114 253.023499,48.1353402 253.768761,48.9077302 C254.490439,49.6587308 255.570597,50.1364243 256.992727,50.3408105 L258.933709,50.6141177 C259.452563,50.6806621 259.792176,50.8398933 259.995,51.0442795 C260.221409,51.2961975 260.311029,51.6146598 260.311029,51.9996664 C260.311029,52.9336641 259.565767,53.4565127 258.009207,53.4565127 C256.721508,53.4565127 255.256927,53.1594396 254.422045,52.3181288 L251.896173,54.8634506 C253.518768,56.5460724 255.525787,57 257.985623,57 C261.369961,57 264.188278,55.2056788 264.188278,51.9093562 Z M278.397781,51.9093562 C278.397781,50.4073549 278.058168,49.2024266 277.20206,48.3611157 C276.525193,47.679036 275.489845,47.2251084 274.046489,47.0207221 L272.103148,46.7474149 C271.539485,46.678494 271.199872,46.4741077 270.997047,46.2697215 C270.749413,46.0201801 270.681018,45.7231071 270.681018,45.5187208 C270.681018,44.8152518 271.24704,44.0190961 272.622001,44.0190961 C273.322453,44.0190961 274.654963,43.9501751 275.669085,44.9721064 L278.150147,42.4743162 C276.772827,41.0887675 275.037027,40.5421531 272.735206,40.5421531 C269.082007,40.5421531 266.872164,42.7000917 266.872164,45.6565627 C266.872164,47.0421114 267.233003,48.1353402 267.975906,48.9077302 C268.697584,49.6587308 269.780101,50.1364243 271.199872,50.3408105 L273.143213,50.6141177 C273.662066,50.6806621 273.999321,50.8398933 274.204504,51.0442795 C274.428554,51.2961975 274.520532,51.6146598 274.520532,51.9996664 C274.520532,52.9336641 273.775271,53.4565127 272.216352,53.4565127 C270.928653,53.4565127 269.464072,53.1594396 268.62919,52.3181288 L266.103318,54.8634506 C267.728272,56.5460724 269.735291,57 272.195127,57 C275.579465,57 278.397781,55.2056788 278.397781,51.9093562 Z M293.371414,48.7698883 C293.371414,46.3386424 293.43745,44.0642512 291.74646,42.3602402 C290.574323,41.1790777 289.222947,40.5421531 287.258379,40.5421531 C285.293812,40.5421531 283.940077,41.1790777 282.767941,42.3602402 C281.076951,44.0642512 281.145345,46.3386424 281.145345,48.7698883 C281.145345,51.2035107 281.076951,53.4779019 282.767941,55.1819129 C283.940077,56.3630754 285.293812,57 287.258379,57 C289.222947,57 290.574323,56.3630754 291.74646,55.1819129 C293.43745,53.4779019 293.371414,51.2035107 293.371414,48.7698883 Z M289.425771,48.7698883 C289.425771,51.7263592 289.199362,52.2515844 288.838523,52.7269013 C288.54372,53.1142845 287.980057,53.4565127 287.258379,53.4565127 C286.534343,53.4565127 285.97068,53.1142845 285.678236,52.7269013 C285.317397,52.2515844 285.090988,51.7263592 285.090988,48.7698883 C285.090988,45.8134173 285.317397,45.2691795 285.678236,44.791486 C285.97068,44.4041027 286.534343,44.0856404 287.258379,44.0856404 C287.980057,44.0856404 288.54372,44.4041027 288.838523,44.791486 C289.199362,45.2691795 289.425771,45.8134173 289.425771,48.7698883 Z M308.453534,51.7263592 L304.439497,51.7263592 C304.189504,52.6365911 303.694235,53.4565127 302.38531,53.4565127 C301.663632,53.4565127 301.121195,53.1594396 300.82875,52.774433 C300.467911,52.2967395 300.220277,51.7263592 300.220277,48.7698883 C300.220277,45.8134173 300.467911,45.2454136 300.82875,44.7677201 C301.121195,44.3827135 301.663632,44.0856404 302.38531,44.0856404 C303.694235,44.0856404 304.189504,44.905562 304.439497,45.8134173 L308.453534,45.8134173 C307.868645,42.2461641 305.408809,40.5421531 302.361726,40.5421531 C300.489137,40.5421531 299.069366,41.1790777 297.897229,42.3602402 C296.206239,44.0642512 296.274634,46.3386424 296.274634,48.7698883 C296.274634,51.2035107 296.206239,53.4779019 297.897229,55.1819129 C299.069366,56.3630754 300.489137,57 302.361726,57 C305.408809,57 307.868645,55.295989 308.453534,51.7263592 Z M311.30251,56.8621581 L315.245795,56.8621581 L315.245795,40.6776184 L311.30251,40.6776184 L311.30251,56.8621581 Z M332.478798,56.8621581 L326.636982,40.679995 L323.589898,40.679995 L317.748083,56.8621581 L321.875324,56.8621581 L322.665396,54.4523015 L327.606294,54.4523015 L328.351556,56.8621581 L332.478798,56.8621581 Z M326.568588,51.1369663 L323.771497,51.1369663 L325.214852,46.8163359 L326.568588,51.1369663 Z M344.454874,44.2234823 L344.454874,40.679995 L332.613228,40.679995 L332.613228,44.2234823 L336.561229,44.2234823 L336.561229,56.8621581 L340.506872,56.8621581 L340.506872,44.2234823 L344.454874,44.2234823 Z M347.329793,56.8621581 L351.275436,56.8621581 L351.275436,40.6776184 L347.329793,40.6776184 L347.329793,56.8621581 Z M366.878768,48.7698883 C366.878768,46.3386424 366.944803,44.0642512 365.253814,42.3602402 C364.081677,41.1790777 362.7303,40.5421531 360.765733,40.5421531 C358.801166,40.5421531 357.447431,41.1790777 356.275294,42.3602402 C354.584304,44.0642512 354.652699,46.3386424 354.652699,48.7698883 C354.652699,51.2035107 354.584304,53.4779019 356.275294,55.1819129 C357.447431,56.3630754 358.801166,57 360.765733,57 C362.7303,57 364.081677,56.3630754 365.253814,55.1819129 C366.944803,53.4779019 366.878768,51.2035107 366.878768,48.7698883 Z M362.933125,48.7698883 C362.933125,51.7263592 362.706716,52.2515844 362.345877,52.7269013 C362.053432,53.1142845 361.487411,53.4565127 360.765733,53.4565127 C360.044055,53.4565127 359.478034,53.1142845 359.185589,52.7269013 C358.82475,52.2515844 358.598342,51.7263592 358.598342,48.7698883 C358.598342,45.8134173 358.82475,45.2691795 359.185589,44.791486 C359.478034,44.4041027 360.044055,44.0856404 360.765733,44.0856404 C361.487411,44.0856404 362.053432,44.4041027 362.345877,44.791486 C362.706716,45.2691795 362.933125,45.8134173 362.933125,48.7698883 Z M382.805204,56.8621581 L382.805204,40.679995 L378.859561,40.679995 L378.859561,48.8174199 L373.71348,40.679995 L370.265464,40.679995 L370.265464,56.8621581 L374.211107,56.8621581 L374.211107,48.7271097 L379.357188,56.8621581 L382.805204,56.8621581 L382.805204,56.8621581 Z"/>
    <path fill="#E10079" d="M14.9005217,8.54382088 L14.9005217,6.48807538 L0.226408687,6.48807538 L0.226408687,8.54382088 L6.42198806,8.54382088 L6.42198806,28.0650851 L8.70494231,28.0650851 L8.70494231,8.54382088 L14.9005217,8.54382088 Z M19.1692688,28.0650851 L21.4522231,28.0650851 L21.4522231,6.4856988 L19.1692688,6.4856988 L19.1692688,28.0650851 Z M42.1898437,28.0650851 L37.1097988,18.275934 C39.8762299,17.7008005 41.7676858,15.6403019 41.7676858,12.4865744 C41.7676858,8.75771348 39.1545522,6.48807538 35.4235257,6.48807538 L27.2138524,6.48807538 L27.2138524,28.0650851 L29.4944483,28.0650851 L29.4944483,18.48745 L34.640529,18.48745 L39.5153911,28.0650851 L42.1898437,28.0650851 Z M39.48709,12.51747 C39.48709,15.1554787 37.7111969,16.4602235 35.213626,16.4602235 L29.4944483,16.4602235 L29.4944483,8.54382088 L35.213626,8.54382088 C37.7111969,8.54382088 39.48709,9.87946131 39.48709,12.51747 Z M61.1633633,17.2753919 C61.1633633,12.6980904 61.1633633,10.5758005 59.1516278,8.54382088 C57.7082724,7.09172782 55.8120997,6.30507839 53.6753677,6.30507839 C51.5386357,6.30507839 49.6448214,7.09172782 48.1991076,8.54382088 C46.1873721,10.5758005 46.1873721,12.6980904 46.1873721,17.2753919 C46.1873721,21.85507 46.1873721,23.9773599 48.1991076,26.0093396 C49.6448214,27.4614326 51.5386357,28.2480821 53.6753677,28.2480821 C55.8120997,28.2480821 57.7082724,27.4614326 59.1516278,26.0093396 C61.1633633,23.9773599 61.1633633,21.85507 61.1633633,17.2753919 Z M58.8827675,17.2753919 C58.8827675,21.7932789 58.7318283,23.2501251 57.3780931,24.6451801 C56.4441572,25.6148266 55.090422,26.18996 53.6753677,26.18996 C52.2626718,26.18996 50.9065781,25.6148266 49.9750007,24.6451801 C48.6212654,23.2501251 48.4703263,21.7932789 48.4703263,17.2753919 C48.4703263,12.7598816 48.6212654,11.3030354 49.9750007,9.90798032 C50.9065781,8.93833389 52.2626718,8.36320047 53.6753677,8.36320047 C55.090422,8.36320047 56.4441572,8.93833389 57.3780931,9.90798032 C58.7318283,11.3030354 58.8827675,12.7598816 58.8827675,17.2753919 Z M79.5873702,28.0650851 L79.5873702,26.0093396 L68.6395668,26.0093396 L68.6395668,6.48807538 L66.3566125,6.48807538 L66.3566125,28.0650851 L79.5873702,28.0650851 Z M97.1505523,28.0650851 L97.1505523,26.0093396 L86.1390715,26.0093396 L86.1390715,18.2141428 L95.5255983,18.2141428 L95.5255983,16.1560207 L86.1390715,16.1560207 L86.1390715,8.54382088 L97.1505523,8.54382088 L97.1505523,6.48807538 L83.8584757,6.48807538 L83.8584757,28.0650851 L97.1505523,28.0650851 Z M116.77028,28.0650851 L111.690235,18.275934 C114.459025,17.7008005 116.350481,15.6403019 116.350481,12.4865744 C116.350481,8.75771348 113.737347,6.48807538 110.003962,6.48807538 L101.794289,6.48807538 L101.794289,28.0650851 L104.077243,28.0650851 L104.077243,18.48745 L109.223324,18.48745 L114.098186,28.0650851 L116.77028,28.0650851 Z M114.067526,12.51747 C114.067526,15.1554787 112.291633,16.4602235 109.794062,16.4602235 L104.077243,16.4602235 L104.077243,8.54382088 L109.794062,8.54382088 C112.291633,8.54382088 114.067526,9.87946131 114.067526,12.51747 Z M148.264672,28.0650851 L140.715357,15.2172698 L148.024113,6.48807538 L141.587974,6.48807538 L135.390036,14.1264176 L135.390036,6.48807538 L130.189712,6.48807538 L130.189712,28.0650851 L135.390036,28.0650851 L135.390036,21.3108322 L137.19423,19.219438 L142.128053,28.0650851 L148.264672,28.0650851 Z M159.332755,4.39192795 L163.360943,4.39192795 L163.360943,2.7000624e-14 L159.332755,2.7000624e-14 L159.332755,4.39192795 Z M152.533419,4.39192795 L156.561607,4.39192795 L156.561607,2.7000624e-14 L152.533419,2.7000624e-14 L152.533419,4.39192795 Z M166.066055,20.4909106 L166.066055,6.48807538 L160.80677,6.48807538 L160.80677,20.3697048 C160.80677,22.3707889 159.662934,23.5234323 157.915342,23.5234323 C156.170108,23.5234323 155.087592,22.3707889 155.087592,20.3697048 L155.087592,6.48807538 L149.825948,6.48807538 L149.825948,20.4909106 C149.825948,25.217937 153.462638,28.2480821 157.915342,28.2480821 C162.368046,28.2480821 166.066055,25.217937 166.066055,20.4909106 Z M186.225862,28.0650851 L186.225862,6.48807538 L180.966576,6.48807538 L180.966576,17.3395597 L174.103563,6.48807538 L169.504637,6.48807538 L169.504637,28.0650851 L174.76628,28.0650851 L174.76628,17.2183539 L181.626935,28.0650851 L186.225862,28.0650851 Z M204.553173,21.460557 C204.553173,19.459473 204.102714,17.8529019 202.961237,16.7311541 C202.057961,15.8209223 200.675924,15.2148933 198.75145,14.9415861 L196.161901,14.5779686 C195.409564,14.4876584 194.959105,14.2143512 194.687886,13.941044 C194.357707,13.6083222 194.265728,13.2138092 194.265728,12.940502 C194.265728,11.9993746 195.018066,10.9394179 196.855278,10.9394179 C197.789214,10.9394179 199.565107,10.8491077 200.916483,12.2132672 L204.222994,8.87891928 C202.390498,7.03231321 200.074526,6.30507839 197.006217,6.30507839 C192.131355,6.30507839 189.185683,9.18312208 189.185683,13.123499 C189.185683,14.9724817 189.666802,16.4269513 190.659698,17.4583889 C191.621935,18.458931 193.065291,19.0958556 194.959105,19.3691628 L197.548654,19.7327802 C198.239672,19.8230904 198.69249,20.0346064 198.963709,20.3079136 C199.263228,20.643012 199.383508,21.066044 199.383508,21.5817628 C199.383508,22.8247165 198.390612,23.5234323 196.31284,23.5234323 C194.598266,23.5234323 192.643133,23.1289193 191.532315,22.0071714 L188.164486,25.400934 C190.329519,27.642053 193.003972,28.2480821 196.284539,28.2480821 C200.796204,28.2480821 204.553173,25.8548616 204.553173,21.460557 Z M222.038527,11.2127252 L222.038527,6.48807538 L206.251238,6.48807538 L206.251238,11.2127252 L211.51524,11.2127252 L211.51524,28.0650851 L216.774525,28.0650851 L216.774525,11.2127252 L222.038527,11.2127252 Z M238.592304,28.0650851 L238.592304,23.3404353 L229.599634,23.3404353 L229.599634,6.48807538 L224.33799,6.48807538 L224.33799,28.0650851 L238.592304,28.0650851 Z M255.445601,28.0650851 L255.445601,23.3404353 L246.151052,23.3404353 L246.151052,19.5474066 L254.091865,19.5474066 L254.091865,14.8227568 L246.151052,14.8227568 L246.151052,11.2127252 L255.445601,11.2127252 L255.445601,6.48807538 L240.891767,6.48807538 L240.891767,28.0650851 L255.445601,28.0650851 Z M275.55588,28.0650851 L270.926295,19.06496 C272.607851,18.2165193 274.412045,16.3675367 274.412045,13.4277018 C274.412045,9.87946131 271.857872,6.48807538 267.105648,6.48807538 L258.622397,6.48807538 L258.622397,28.0650851 L263.884041,28.0650851 L263.884041,20.0322298 L265.659934,20.0322298 L269.45228,28.0650851 L275.55588,28.0650851 Z M269.15276,13.4277018 C269.15276,14.5494496 268.308444,15.6117829 266.86273,15.6117829 L263.884041,15.6117829 L263.884041,11.2436207 L266.86273,11.2436207 C268.308444,11.2436207 269.15276,12.3035774 269.15276,13.4277018 Z M277.794025,15.3456054 L283.204249,15.3456054 L283.204249,9.89372081 L277.794025,9.89372081 L277.794025,15.3456054 Z M277.794025,23.0124666 L283.204249,23.0124666 L283.204249,17.5605821 L277.794025,17.5605821 L277.794025,23.0124666 Z M288.687584,28.0650851 L293.949228,28.0650851 L293.949228,6.4856988 L288.687584,6.4856988 L288.687584,28.0650851 Z M316.403781,28.0650851 L316.403781,6.48807538 L311.142137,6.48807538 L311.142137,17.3395597 L304.281483,6.48807538 L299.682556,6.48807538 L299.682556,28.0650851 L304.941841,28.0650851 L304.941841,17.2183539 L311.804855,28.0650851 L316.403781,28.0650851 Z M338.903144,28.0650851 L338.903144,6.48807538 L333.643859,6.48807538 L333.643859,17.3395597 L326.780846,6.48807538 L322.181919,6.48807538 L322.181919,28.0650851 L327.443563,28.0650851 L327.443563,17.2183539 L334.304218,28.0650851 L338.903144,28.0650851 Z M359.237474,28.0650851 L359.237474,23.3404353 L349.942926,23.3404353 L349.942926,19.5474066 L357.883739,19.5474066 L357.883739,14.8227568 L349.942926,14.8227568 L349.942926,11.2127252 L359.237474,11.2127252 L359.237474,6.48807538 L344.683641,6.48807538 L344.683641,28.0650851 L359.237474,28.0650851 Z M381.241569,28.0650851 L381.241569,6.48807538 L375.982284,6.48807538 L375.982284,17.3395597 L369.11927,6.48807538 L364.520344,6.48807538 L364.520344,28.0650851 L369.781987,28.0650851 L369.781987,17.2183539 L376.642642,28.0650851 L381.241569,28.0650851 Z M401.674953,21.460557 C401.674953,19.459473 401.224494,17.8529019 400.083017,16.7311541 C399.17974,15.8209223 397.797704,15.2148933 395.87323,14.9415861 L393.283681,14.5779686 C392.531343,14.4876584 392.080885,14.2143512 391.809666,13.941044 C391.479486,13.6083222 391.387508,13.2138092 391.387508,12.940502 C391.387508,11.9993746 392.139845,10.9394179 393.977057,10.9394179 C394.910993,10.9394179 396.686886,10.8491077 398.038263,12.2132672 L401.344773,8.87891928 C399.512278,7.03231321 397.196306,6.30507839 394.127996,6.30507839 C389.253134,6.30507839 386.307463,9.18312208 386.307463,13.123499 C386.307463,14.9724817 386.788581,16.4269513 387.781478,17.4583889 C388.743715,18.458931 390.184712,19.0958556 392.080885,19.3691628 L394.668075,19.7327802 C395.361452,19.8230904 395.814269,20.0346064 396.08313,20.3079136 C396.385008,20.643012 396.505288,21.066044 396.505288,21.5817628 C396.505288,22.8247165 395.512391,23.5234323 393.43462,23.5234323 C391.720046,23.5234323 389.764912,23.1289193 388.651736,22.0071714 L385.286265,25.400934 C387.451299,27.642053 390.125751,28.2480821 393.40396,28.2480821 C397.917983,28.2480821 401.674953,25.8548616 401.674953,21.460557 Z M421.252229,21.2181454 L415.896248,21.2181454 C415.566069,22.4302035 414.90571,23.5234323 413.160477,23.5234323 C412.19824,23.5234323 411.476562,23.1289193 411.085064,22.6132005 C410.603945,21.9762759 410.271407,21.2181454 410.271407,17.2753919 C410.271407,13.335015 410.603945,12.5768846 411.085064,11.93996 C411.476562,11.4242412 412.19824,11.0297282 413.160477,11.0297282 C414.90571,11.0297282 415.566069,12.122957 415.896248,13.335015 L421.252229,13.335015 C420.469232,8.57709306 417.191023,6.30507839 413.129817,6.30507839 C410.632246,6.30507839 408.738432,7.15351901 407.177155,8.72919446 C404.922502,10.9988326 405.012122,14.0313542 405.012122,17.2753919 C405.012122,20.5218062 404.922502,23.5543279 407.177155,25.823966 C408.738432,27.3996414 410.632246,28.2480821 413.129817,28.2480821 C417.191023,28.2480821 420.469232,25.9760674 421.252229,21.2181454 Z M440.864881,28.0650851 L440.864881,6.48807538 L435.603238,6.48807538 L435.603238,14.7918612 L430.004339,14.7918612 L430.004339,6.48807538 L424.745054,6.48807538 L424.745054,28.0650851 L430.004339,28.0650851 L430.004339,19.5188876 L435.603238,19.5188876 L435.603238,28.0650851 L440.864881,28.0650851 Z M463.571786,28.0650851 L455.779553,6.48807538 L451.718348,6.48807538 L443.928474,28.0650851 L449.433035,28.0650851 L450.484892,24.851943 L457.074328,24.851943 L458.064866,28.0650851 L463.571786,28.0650851 Z M455.689933,20.431496 L451.958907,20.431496 L453.885739,14.6706554 L455.689933,20.431496 Z M481.189212,11.2127252 L481.189212,6.48807538 L466.635378,6.48807538 L466.635378,28.0650851 L471.894663,28.0650851 L471.894663,19.7304036 L479.835476,19.7304036 L479.835476,15.0057538 L471.894663,15.0057538 L471.894663,11.2127252 L481.189212,11.2127252 Z M500,11.2127252 L500,6.48807538 L484.210353,6.48807538 L484.210353,11.2127252 L489.474354,11.2127252 L489.474354,28.0650851 L494.735998,28.0650851 L494.735998,11.2127252 L500,11.2127252 L500,11.2127252 Z"/>
  </g>
</svg>
