<?xml version="1.0" encoding="utf-8"?>
<!-- Generator: Adobe Illustrator 19.2.1, SVG Export Plug-In . SVG Version: 6.00 Build 0)  -->
<svg version="1.1" id="Ebene_1" xmlns="http://www.w3.org/2000/svg" xmlns:xlink="http://www.w3.org/1999/xlink" x="0px" y="0px"
	 viewBox="0 0 668.7 160" style="enable-background:new 0 0 668.7 160;" xml:space="preserve">
<style type="text/css">
	.st0{fill:#008DB9;}
</style>
<title>logo</title>
<path class="st0" d="M43.1,142.5c0-8.1-4.8-11.1-7.1-12.6c3.9-2.5,6.2-6.8,6.3-11.4c0-10-6.4-16.7-18.4-16.7H0v57.7h25.1
	C35.4,159.5,43.1,153.5,43.1,142.5L43.1,142.5z M28.1,119.2c0,2.3-1.2,4.7-5.1,4.7h-8.8v-9.4H23C26.9,114.5,28.1,117,28.1,119.2
	L28.1,119.2L28.1,119.2z M28.9,141.7c0,2.4-1.3,5.1-5.2,5.1h-9.6v-10.1h9.6C27.6,136.7,28.9,139.2,28.9,141.7L28.9,141.7L28.9,141.7
	z M88.4,96.2V84.5H77.5v11.7H88.4z M70.1,96.2V84.5H59.2v11.7H70.1L70.1,96.2z M95.7,139.2v-37.4H81.5v37.1c0,5.3-3.1,8.4-7.8,8.4
	s-7.6-3.1-7.6-8.4v-37.1H51.9v37.4c0,12.6,9.8,20.7,21.8,20.7S95.7,151.9,95.7,139.2L95.7,139.2L95.7,139.2z M148.3,141.2h-14.4
	c-0.9,3.2-2.7,6.2-7.4,6.2c-2.1,0.1-4.2-0.8-5.6-2.4c-1.3-1.7-2.2-3.7-2.2-14.3s0.9-12.6,2.2-14.3c1.4-1.6,3.5-2.5,5.6-2.4
	c4.7,0,6.5,2.9,7.4,6.2h14.4c-2.1-12.7-10.9-18.8-21.9-18.8c-6-0.2-11.8,2.2-16,6.5c-6.1,6.1-5.8,14.2-5.8,22.8s-0.2,16.8,5.8,22.8
	c4.2,4.3,10,6.7,16,6.5C137.3,160,146.2,153.9,148.3,141.2L148.3,141.2L148.3,141.2z M199.2,159.5v-57.7H185V124h-15.1v-22.2h-14.2
	v57.7h14.2v-22.8H185v22.8H199.2L199.2,159.5z M249.6,141.8c0-5.3-1.2-9.6-4.3-12.6c-2.4-2.4-6.2-4.1-11.3-4.8l-7-1
	c-1.5-0.1-2.9-0.7-4-1.7c-0.7-0.7-1.1-1.7-1.1-2.7c0-2.5,2-5.3,7-5.3c2.5,0,7.3-0.2,10.9,3.4l8.9-8.9c-4.9-4.9-11.2-6.9-19.4-6.9
	c-13.1,0-21.1,7.7-21.1,18.2c0,4.9,1.3,8.8,4,11.6c2.6,2.7,6.5,4.4,11.6,5.1l7,1c1.4,0.1,2.7,0.6,3.8,1.5c0.8,0.9,1.2,2.2,1.1,3.4
	c0,3.3-2.7,5.2-8.3,5.2c-4.6,0-9.9-1.1-12.9-4.1l-9.1,9.1c5.8,6,13,7.6,21.9,7.6C239.4,160,249.6,153.6,249.6,141.8L249.6,141.8
	L249.6,141.8z M298.1,159.5v-12.6h-25v-10.1h21.4v-12.6H273v-9.6h25V102h-39.2v57.7L298.1,159.5L298.1,159.5z M353.2,159.5v-57.7
	H339v29l-18.5-29h-12.4v57.7h14.2v-29l18.5,29H353.2L353.2,159.5z M408.3,159.5v-57.7h-14.2V124H379v-22.2h-14.2v57.7H379v-22.8
	h15.1v22.8H408.3L408.3,159.5z M467,159.5l-21-57.7h-10.9l-21,57.7h14.8l2.8-8.6h17.7l2.7,8.6H467L467,159.5z M445.8,139.1h-10
	l5.2-15.4L445.8,139.1L445.8,139.1z M515.6,139.3v-37.4h-14.2V139c0,5.3-3.1,8.4-7.8,8.4s-7.6-3.1-7.6-8.4v-37.1h-14.2v37.4
	c0,12.6,9.8,20.7,21.8,20.7S515.6,151.9,515.6,139.3L515.6,139.3L515.6,139.3z M565.1,141.8c0-5.3-1.2-9.6-4.3-12.6
	c-2.4-2.4-6.2-4.1-11.3-4.8l-7-1c-1.5-0.1-2.9-0.7-4-1.7c-0.7-0.7-1.1-1.7-1.1-2.7c0-2.5,2-5.3,7-5.3c2.5,0,7.3-0.2,10.9,3.4
	l8.9-8.9c-4.9-4.9-11.2-6.9-19.4-6.9c-13.1,0-21.1,7.7-21.1,18.2c0,4.9,1.3,8.8,4,11.6c2.6,2.7,6.5,4.4,11.6,5.1l7,1
	c1.4,0.1,2.7,0.6,3.8,1.5c0.8,0.9,1.2,2.2,1.1,3.4c0,3.3-2.7,5.2-8.3,5.2c-4.6,0-9.9-1.1-12.9-4.1l-9.1,9.1c5.8,6,13,7.6,21.9,7.6
	C554.9,160,565.1,153.6,565.1,141.8L565.1,141.8L565.1,141.8z M613.6,159.5v-12.6h-25v-10.1H610v-12.6h-21.4v-9.6h25V102h-39.2v57.7
	L613.6,159.5L613.6,159.5z M668.7,159.5v-57.7h-14.2v29l-18.5-29h-12.4v57.7h14.2v-29l18.5,29H668.7L668.7,159.5z"/>
<path class="st0" d="M48.7,78.5L28.4,44.1L48,20.8H30.7L14,41.2V20.8H0v57.7h14V60.4l4.9-5.6l13.3,23.7H48.7z M90,15.2V3.5H79.2
	v11.7H90L90,15.2z M71.7,15.2V3.5H60.8v11.7H71.7L71.7,15.2z M97.3,58.2V20.8H83.1v37.1c0,5.3-3.1,8.4-7.8,8.4s-7.6-3.1-7.6-8.4
	V20.8H53.6v37.4c0,12.6,9.8,20.7,21.8,20.7S97.3,70.9,97.3,58.2L97.3,58.2L97.3,58.2z M153.1,78.5V20.8h-14.2v29l-18.5-29H108v57.7
	h14.2v-29l18.5,29H153.1L153.1,78.5z M203.5,60.8c0-5.3-1.2-9.6-4.3-12.6c-2.4-2.4-6.2-4.1-11.3-4.8l-7-1c-1.5-0.1-2.9-0.7-4-1.7
	c-0.7-0.7-1.1-1.7-1.1-2.7c0-2.5,2-5.3,7-5.3c2.5,0,7.3-0.2,10.9,3.4l8.9-8.9c-4.9-4.9-11.2-6.9-19.4-6.9
	c-13.1,0-21.1,7.7-21.1,18.2c0,4.9,1.3,8.8,4,11.6c2.6,2.7,6.5,4.4,11.6,5.1l7,1c1.4,0.1,2.7,0.6,3.8,1.5c0.8,0.9,1.2,2.2,1.1,3.4
	c0,3.3-2.7,5.2-8.3,5.2c-4.6,0-9.9-1.1-12.9-4.1l-9.1,9.1c5.8,6,13,7.6,21.9,7.6C193.3,79,203.5,72.6,203.5,60.8L203.5,60.8
	L203.5,60.8z M251.9,33.4V20.8h-42.5v12.6h14.2v45.1h14.2V33.4H251.9z M298.6,78.5V65.8h-24.2v-45h-14.2v57.7H298.6L298.6,78.5z
	 M346.1,78.5V65.8h-25V55.7h21.4V43.1H321v-9.6h25V20.8h-39.2v57.7H346.1L346.1,78.5z M401.7,78.5l-12.5-24.1
	c5.8-2.8,9.4-8.7,9.4-15.1c0-9.5-6.9-18.6-19.7-18.6h-22.8v57.7h14.2V57h4.8l10.2,21.5H401.7L401.7,78.5z M384.5,39.3
	c0,3.2-2.6,5.8-5.8,5.8c-0.1,0-0.2,0-0.3,0h-8V33.5h8c3.2-0.2,6,2.3,6.1,5.5C384.5,39.1,384.5,39.2,384.5,39.3L384.5,39.3
	L384.5,39.3z M452.4,78.5V20.8h-14.2V43h-15.1V20.8h-14.2v57.7h14.2V55.6h15.1v22.8h14.2V78.5z M511.1,78.5l-21-57.7h-10.9l-21,57.7
	H473l2.8-8.6h17.7l2.7,8.6H511.1L511.1,78.5z M489.9,58.1h-10l5.2-15.4L489.9,58.1L489.9,58.1L489.9,58.1z M559.7,58.2V20.8h-14.2
	v37.1c0,5.3-3.1,8.4-7.8,8.4s-7.6-3.1-7.6-8.4V20.8H516v37.4c0,12.6,9.8,20.7,21.8,20.7S559.7,70.9,559.7,58.2L559.7,58.2
	L559.7,58.2z M609.1,60.8c0-5.3-1.2-9.6-4.3-12.6c-2.4-2.4-6.2-4.1-11.3-4.8l-7-1c-1.5-0.1-2.9-0.7-4-1.7c-0.7-0.7-1.1-1.7-1.1-2.7
	c0-2.5,2-5.3,7-5.3c2.5,0,7.3-0.2,10.9,3.4l8.9-8.9c-4.9-4.9-11.2-6.9-19.4-6.9c-13.1,0-21.1,7.7-21.1,18.2c0,4.9,1.3,8.8,4,11.6
	c2.6,2.7,6.5,4.4,11.6,5.1l7,1c1.4,0.1,2.7,0.6,3.8,1.5c0.8,0.9,1.2,2.2,1.1,3.4c0,3.3-2.7,5.2-8.3,5.2c-4.6,0-9.9-1.1-12.9-4.1
	l-9.1,9.1c5.8,6,13,7.6,21.9,7.6C599,79,609.1,72.6,609.1,60.8L609.1,60.8L609.1,60.8z"/>
</svg>
